<?xml version="1.0" encoding="UTF-8" standalone="no"?>
<!DOCTYPE svg PUBLIC "-//W3C//DTD SVG 1.1//EN"
 "http://www.w3.org/Graphics/SVG/1.1/DTD/svg11.dtd">
<!-- Generated by graphviz version 15.0.0 (20260523.1842)
 -->
<!-- Pages: 1 -->
<svg width="842pt" height="1492pt"
 viewBox="0.00 0.00 842.00 1492.00" xmlns="http://www.w3.org/2000/svg" xmlns:xlink="http://www.w3.org/1999/xlink">
<g id="graph0" class="graph" transform="scale(1 1) rotate(0) translate(43.2 1449.2)">
<polygon fill="white" stroke="none" points="-43.2,43.2 -43.2,-1449.2 798.4,-1449.2 798.4,43.2 -43.2,43.2"/>
<text xml:space="preserve" text-anchor="middle" x="377.6" y="-1384.9" font-family="Sans-Serif" font-size="18.00" fill="#2d3436">My Language Coach — Geographic deployment (2026&#45;05&#45;29)</text>
<text xml:space="preserve" text-anchor="middle" x="377.6" y="-1362.4" font-family="Sans-Serif" font-size="18.00" fill="#2d3436">Solid edges = fast EU hops (&lt;30 ms). Dashed = transatlantic (~100 ms).</text>
<g id="clust1" class="cluster">
<title>cluster_🇨🇭 Switzerland (end user)</title>
<path fill="#e5f5fd" stroke="#aeb6be" d="M12,-556C12,-556 139,-556 139,-556 145,-556 151,-562 151,-568 151,-568 151,-720 151,-720 151,-726 145,-732 139,-732 139,-732 12,-732 12,-732 6,-732 0,-726 0,-720 0,-720 0,-568 0,-568 0,-562 6,-556 12,-556"/>
<text xml:space="preserve" text-anchor="middle" x="75.5" y="-716.6" font-family="Sans-Serif" font-size="12.00" fill="#2d3436">🇨🇭 Switzerland (end user)</text>
</g>
<g id="clust2" class="cluster">
<title>cluster_🌍 Global anycast</title>
<path fill="#e5f5fd" stroke="#aeb6be" d="M28.6,-194C28.6,-194 450.55,-194 450.55,-194 456.55,-194 462.55,-200 462.55,-206 462.55,-206 462.55,-388 462.55,-388 462.55,-394 456.55,-400 450.55,-400 450.55,-400 28.6,-400 28.6,-400 22.6,-400 16.6,-394 16.6,-388 16.6,-388 16.6,-206 16.6,-206 16.6,-200 22.6,-194 28.6,-194"/>
<text xml:space="preserve" text-anchor="middle" x="72.98" y="-384.6" font-family="Sans-Serif" font-size="12.00" fill="#2d3436">🌍 Global anycast</text>
</g>
<g id="clust3" class="cluster">
<title>cluster_🇸🇪 Stockholm — eu&#45;north&#45;1 / arn</title>
<path fill="#e5f5fd" stroke="#aeb6be" d="M349.75,-676C349.75,-676 735.2,-676 735.2,-676 741.2,-676 747.2,-682 747.2,-688 747.2,-688 747.2,-1119 747.2,-1119 747.2,-1125 741.2,-1131 735.2,-1131 735.2,-1131 349.75,-1131 349.75,-1131 343.75,-1131 337.75,-1125 337.75,-1119 337.75,-1119 337.75,-688 337.75,-688 337.75,-682 343.75,-676 349.75,-676"/>
<text xml:space="preserve" text-anchor="middle" x="432.75" y="-1115.6" font-family="Sans-Serif" font-size="12.00" fill="#2d3436">🇸🇪 Stockholm — eu&#45;north&#45;1 / arn</text>
</g>
<g id="clust4" class="cluster">
<title>cluster_Fly.io</title>
<path fill="#ebf3e7" stroke="#aeb6be" d="M357.75,-684C357.75,-684 450.55,-684 450.55,-684 456.55,-684 462.55,-690 462.55,-696 462.55,-696 462.55,-878 462.55,-878 462.55,-884 456.55,-890 450.55,-890 450.55,-890 357.75,-890 357.75,-890 351.75,-890 345.75,-884 345.75,-878 345.75,-878 345.75,-696 345.75,-696 345.75,-690 351.75,-684 357.75,-684"/>
<text xml:space="preserve" text-anchor="middle" x="367.25" y="-874.6" font-family="Sans-Serif" font-size="12.00" fill="#2d3436">Fly.io</text>
</g>
<g id="clust5" class="cluster">
<title>cluster_Supabase</title>
<path fill="#ebf3e7" stroke="#aeb6be" d="M634.4,-684C634.4,-684 727.2,-684 727.2,-684 733.2,-684 739.2,-690 739.2,-696 739.2,-696 739.2,-1087 739.2,-1087 739.2,-1093 733.2,-1099 727.2,-1099 727.2,-1099 634.4,-1099 634.4,-1099 628.4,-1099 622.4,-1093 622.4,-1087 622.4,-1087 622.4,-696 622.4,-696 622.4,-690 628.4,-684 634.4,-684"/>
<text xml:space="preserve" text-anchor="middle" x="655.52" y="-1083.6" font-family="Sans-Serif" font-size="12.00" fill="#2d3436">Supabase</text>
</g>
<g id="clust6" class="cluster">
<title>cluster_🇮🇪 Dublin — eu&#45;west&#45;1</title>
<path fill="#e5f5fd" stroke="#aeb6be" d="M626.05,-1139C626.05,-1139 736.55,-1139 736.55,-1139 742.55,-1139 748.55,-1145 748.55,-1151 748.55,-1151 748.55,-1333 748.55,-1333 748.55,-1339 742.55,-1345 736.55,-1345 736.55,-1345 626.05,-1345 626.05,-1345 620.05,-1345 614.05,-1339 614.05,-1333 614.05,-1333 614.05,-1151 614.05,-1151 614.05,-1145 620.05,-1139 626.05,-1139"/>
<text xml:space="preserve" text-anchor="middle" x="681.3" y="-1329.6" font-family="Sans-Serif" font-size="12.00" fill="#2d3436">🇮🇪 Dublin — eu&#45;west&#45;1</text>
</g>
<g id="clust7" class="cluster">
<title>cluster_🇺🇸 US east</title>
<path fill="#e5f5fd" stroke="#aeb6be" d="M626.4,-8C626.4,-8 735.2,-8 735.2,-8 741.2,-8 747.2,-14 747.2,-20 747.2,-20 747.2,-656 747.2,-656 747.2,-662 741.2,-668 735.2,-668 735.2,-668 626.4,-668 626.4,-668 620.4,-668 614.4,-662 614.4,-656 614.4,-656 614.4,-20 614.4,-20 614.4,-14 620.4,-8 626.4,-8"/>
<text xml:space="preserve" text-anchor="middle" x="649.77" y="-652.6" font-family="Sans-Serif" font-size="12.00" fill="#2d3436">🇺🇸 US east</text>
</g>
<g id="clust8" class="cluster">
<title>cluster_Vercel functions</title>
<path fill="#ebf3e7" stroke="#aeb6be" d="M634.4,-16C634.4,-16 727.2,-16 727.2,-16 733.2,-16 739.2,-22 739.2,-28 739.2,-28 739.2,-238 739.2,-238 739.2,-244 733.2,-250 727.2,-250 727.2,-250 634.4,-250 634.4,-250 628.4,-250 622.4,-244 622.4,-238 622.4,-238 622.4,-28 622.4,-28 622.4,-22 628.4,-16 634.4,-16"/>
<text xml:space="preserve" text-anchor="middle" x="672.02" y="-234.6" font-family="Sans-Serif" font-size="12.00" fill="#2d3436">Vercel functions</text>
</g>
<!-- bb54685950fd4c128e0d1b66ae49dd6f -->
<g id="node1" class="node">
<title>bb54685950fd4c128e0d1b66ae49dd6f</title>
<image xlink:href="C:\Users\bruno.moise\AppData\Local\Programs\Python\Python313\Lib\site-packages\resources/onprem/client\users.png" width="100.8px" height="100.8px" preserveAspectRatio="xMinYMin meet" x="24.6" y="-682.4"/>
<text xml:space="preserve" text-anchor="middle" x="75" y="-567.75" font-family="Sans-Serif" font-size="13.00" fill="#2d3436">EU language learner</text>
</g>
<!-- 7b4579ad7ff14bb3ab61181ef92ac3c5 -->
<g id="node3" class="node">
<title>7b4579ad7ff14bb3ab61181ef92ac3c5</title>
<image xlink:href="C:\Users\bruno.moise\AppData\Local\Programs\Python\Python313\Lib\site-packages\resources/aws/network\cloudfront.png" width="100.8px" height="100.8px" preserveAspectRatio="xMinYMin meet" x="353.75" y="-335.4"/>
<text xml:space="preserve" text-anchor="middle" x="404.15" y="-222.85" font-family="Sans-Serif" font-size="13.00" fill="#2d3436">Vercel edge POPs</text>
<text xml:space="preserve" text-anchor="middle" x="404.15" y="-206.35" font-family="Sans-Serif" font-size="13.00" fill="#2d3436">static HTML/JS cached</text>
</g>
<!-- bb54685950fd4c128e0d1b66ae49dd6f&#45;&gt;7b4579ad7ff14bb3ab61181ef92ac3c5 -->
<g id="edge1" class="edge">
<title>bb54685950fd4c128e0d1b66ae49dd6f&#45;&gt;7b4579ad7ff14bb3ab61181ef92ac3c5</title>
<path fill="none" stroke="#7b8894" d="M125.33,-579.67C184.56,-516.85 283.7,-411.7 346.15,-345.46"/>
<polygon fill="#7b8894" stroke="#7b8894" points="348.6,-347.96 352.91,-338.28 343.51,-343.16 348.6,-347.96"/>
<text xml:space="preserve" text-anchor="middle" x="248.37" y="-533.62" font-family="Sans-Serif" font-size="13.00" fill="#2d3436">HTTPS ~20ms</text>
</g>
<!-- 354127877bd249a7ba5037c15f38c37b -->
<g id="node4" class="node">
<title>354127877bd249a7ba5037c15f38c37b</title>
<image xlink:href="C:\Users\bruno.moise\AppData\Local\Programs\Python\Python313\Lib\site-packages\resources/aws/compute\ec2.png" width="100.8px" height="100.8px" preserveAspectRatio="xMinYMin meet" x="353.75" y="-825.4"/>
<text xml:space="preserve" text-anchor="middle" x="404.15" y="-712.85" font-family="Sans-Serif" font-size="13.00" fill="#2d3436">Backend API</text>
<text xml:space="preserve" text-anchor="middle" x="404.15" y="-696.35" font-family="Sans-Serif" font-size="13.00" fill="#2d3436">Hono, 256 MB, always&#45;on</text>
</g>
<!-- bb54685950fd4c128e0d1b66ae49dd6f&#45;&gt;354127877bd249a7ba5037c15f38c37b -->
<g id="edge2" class="edge">
<title>bb54685950fd4c128e0d1b66ae49dd6f&#45;&gt;354127877bd249a7ba5037c15f38c37b</title>
<path fill="none" stroke="#7b8894" d="M125.33,-653.56C183.72,-679.08 280.88,-721.56 343.45,-748.91"/>
<polygon fill="#7b8894" stroke="#7b8894" points="342,-752.09 352.57,-752.89 344.8,-745.68 342,-752.09"/>
<text xml:space="preserve" text-anchor="middle" x="248.37" y="-744.59" font-family="Sans-Serif" font-size="13.00" fill="#2d3436">HTTPS+WebSocket ~30ms</text>
</g>
<!-- 401ecc99f32a4c958a4a61653813aa3c -->
<g id="node2" class="node">
<title>401ecc99f32a4c958a4a61653813aa3c</title>
<image xlink:href="C:\Users\bruno.moise\AppData\Local\Programs\Python\Python313\Lib\site-packages\resources/saas/cdn\cloudflare.png" width="100.8px" height="45.2812px" preserveAspectRatio="xMinYMin meet" x="24.6" y="-307.641"/>
<text xml:space="preserve" text-anchor="middle" x="75" y="-222.85" font-family="Sans-Serif" font-size="13.00" fill="#2d3436">Porkbun DNS</text>
<text xml:space="preserve" text-anchor="middle" x="75" y="-206.35" font-family="Sans-Serif" font-size="13.00" fill="#2d3436">(Cloudflare backbone)</text>
</g>
<!-- 401ecc99f32a4c958a4a61653813aa3c&#45;&gt;7b4579ad7ff14bb3ab61181ef92ac3c5 -->
<g id="edge3" class="edge">
<title>401ecc99f32a4c958a4a61653813aa3c&#45;&gt;7b4579ad7ff14bb3ab61181ef92ac3c5</title>
<path fill="none" stroke="#7b8894" d="M125.33,-285C183.47,-285 280.08,-285 342.68,-285"/>
<polygon fill="#7b8894" stroke="#7b8894" points="342.44,-288.5 352.44,-285 342.44,-281.5 342.44,-288.5"/>
<text xml:space="preserve" text-anchor="middle" x="248.37" y="-289.15" font-family="Sans-Serif" font-size="13.00" fill="#2d3436">resolves to</text>
</g>
<!-- 83bc37c9bb8c4b2eb1f7470c4d8d2945 -->
<g id="node8" class="node">
<title>83bc37c9bb8c4b2eb1f7470c4d8d2945</title>
<image xlink:href="C:\Users\bruno.moise\AppData\Local\Programs\Python\Python313\Lib\site-packages\resources/programming/framework\react.png" width="100.8px" height="100.8px" preserveAspectRatio="xMinYMin meet" x="630.4" y="-171.4"/>
<text xml:space="preserve" text-anchor="middle" x="680.8" y="-60.95" font-family="Sans-Serif" font-size="13.00" fill="#2d3436">Next.js SSR</text>
<text xml:space="preserve" text-anchor="middle" x="680.8" y="-44.45" font-family="Sans-Serif" font-size="13.00" fill="#2d3436">(iad1, only for /&#45;routes</text>
<text xml:space="preserve" text-anchor="middle" x="680.8" y="-27.95" font-family="Sans-Serif" font-size="13.00" fill="#2d3436">with headers())</text>
</g>
<!-- 7b4579ad7ff14bb3ab61181ef92ac3c5&#45;&gt;83bc37c9bb8c4b2eb1f7470c4d8d2945 -->
<g id="edge9" class="edge">
<title>7b4579ad7ff14bb3ab61181ef92ac3c5&#45;&gt;83bc37c9bb8c4b2eb1f7470c4d8d2945</title>
<path fill="none" stroke="firebrick" stroke-dasharray="5,2" d="M454.25,-255.68C500.97,-227.78 571.33,-185.77 621.01,-156.1"/>
<polygon fill="firebrick" stroke="firebrick" points="622.57,-159.25 629.36,-151.12 618.98,-153.24 622.57,-159.25"/>
<text xml:space="preserve" text-anchor="middle" x="542.3" y="-240.69" font-family="Sans-Serif" font-size="13.00" fill="#2d3436">~100ms SSR fallback</text>
</g>
<!-- 4fd0ec03f51e48b8a7660b3f00066711 -->
<g id="node5" class="node">
<title>4fd0ec03f51e48b8a7660b3f00066711</title>
<image xlink:href="C:\Users\bruno.moise\AppData\Local\Programs\Python\Python313\Lib\site-packages\resources/aws/database\rds.png" width="100.8px" height="100.8px" preserveAspectRatio="xMinYMin meet" x="630.4" y="-825.4"/>
<text xml:space="preserve" text-anchor="middle" x="680.8" y="-712.85" font-family="Sans-Serif" font-size="13.00" fill="#2d3436">Postgres 16</text>
<text xml:space="preserve" text-anchor="middle" x="680.8" y="-696.35" font-family="Sans-Serif" font-size="13.00" fill="#2d3436">auth + tables + RLS</text>
</g>
<!-- 354127877bd249a7ba5037c15f38c37b&#45;&gt;4fd0ec03f51e48b8a7660b3f00066711 -->
<g id="edge4" class="edge">
<title>354127877bd249a7ba5037c15f38c37b&#45;&gt;4fd0ec03f51e48b8a7660b3f00066711</title>
<path fill="none" stroke="darkgreen" d="M454.25,-775C500.49,-775 569.86,-775 619.45,-775"/>
<polygon fill="darkgreen" stroke="darkgreen" points="619.15,-778.5 629.15,-775 619.15,-771.5 619.15,-778.5"/>
<text xml:space="preserve" text-anchor="middle" x="542.3" y="-779.15" font-family="Sans-Serif" font-size="13.00" fill="#2d3436">~5ms SQL</text>
</g>
<!-- c0adf03ec9fc4d759aaf53f3323f221c -->
<g id="node6" class="node">
<title>c0adf03ec9fc4d759aaf53f3323f221c</title>
<image xlink:href="C:\Users\bruno.moise\AppData\Local\Programs\Python\Python313\Lib\site-packages\resources/aws/storage\simple-storage-service-s3.png" width="100.8px" height="100.8px" preserveAspectRatio="xMinYMin meet" x="630.4" y="-1034.4"/>
<text xml:space="preserve" text-anchor="middle" x="680.8" y="-921.85" font-family="Sans-Serif" font-size="13.00" fill="#2d3436">Storage</text>
<text xml:space="preserve" text-anchor="middle" x="680.8" y="-905.35" font-family="Sans-Serif" font-size="13.00" fill="#2d3436">audio cache</text>
</g>
<!-- 354127877bd249a7ba5037c15f38c37b&#45;&gt;c0adf03ec9fc4d759aaf53f3323f221c -->
<g id="edge5" class="edge">
<title>354127877bd249a7ba5037c15f38c37b&#45;&gt;c0adf03ec9fc4d759aaf53f3323f221c</title>
<path fill="none" stroke="darkgreen" d="M454.25,-812.37C501.17,-848.07 571.91,-901.9 621.63,-939.74"/>
<polygon fill="darkgreen" stroke="darkgreen" points="619.38,-942.42 629.46,-945.69 623.62,-936.85 619.38,-942.42"/>
<text xml:space="preserve" text-anchor="middle" x="542.3" y="-926.39" font-family="Sans-Serif" font-size="13.00" fill="#2d3436">~5ms</text>
</g>
<!-- ce074e6e76a94f27afff8813aa8c0e74 -->
<g id="node7" class="node">
<title>ce074e6e76a94f27afff8813aa8c0e74</title>
<image xlink:href="C:\Users\bruno.moise\AppData\Local\Programs\Python\Python313\Lib\site-packages\resources/aws/engagement\simple-email-service-ses.png" width="100.8px" height="100.8px" preserveAspectRatio="xMinYMin meet" x="630.4" y="-1280.4"/>
<text xml:space="preserve" text-anchor="middle" x="680.8" y="-1167.85" font-family="Sans-Serif" font-size="13.00" fill="#2d3436">Resend</text>
<text xml:space="preserve" text-anchor="middle" x="680.8" y="-1151.35" font-family="Sans-Serif" font-size="13.00" fill="#2d3436">(AWS SES backend)</text>
</g>
<!-- 354127877bd249a7ba5037c15f38c37b&#45;&gt;ce074e6e76a94f27afff8813aa8c0e74 -->
<g id="edge6" class="edge">
<title>354127877bd249a7ba5037c15f38c37b&#45;&gt;ce074e6e76a94f27afff8813aa8c0e74</title>
<path fill="none" stroke="darkgreen" d="M437.42,-857.65C449.97,-887.11 465.25,-920.13 481.55,-949 523.89,-1023.98 581.45,-1103.66 623.63,-1158.95"/>
<polygon fill="darkgreen" stroke="darkgreen" points="620.75,-1160.94 629.61,-1166.75 626.31,-1156.68 620.75,-1160.94"/>
<text xml:space="preserve" text-anchor="middle" x="542.3" y="-1130.38" font-family="Sans-Serif" font-size="13.00" fill="#2d3436">~30ms SMTP</text>
</g>
<!-- fd5cc5e46a26465b8e1e81836ed689ce -->
<g id="node9" class="node">
<title>fd5cc5e46a26465b8e1e81836ed689ce</title>
<image xlink:href="C:\Users\bruno.moise\AppData\Local\Programs\Python\Python313\Lib\site-packages\resources/aws/compute\ec2.png" width="100.8px" height="100.8px" preserveAspectRatio="xMinYMin meet" x="630.4" y="-603.4"/>
<text xml:space="preserve" text-anchor="middle" x="680.8" y="-490.85" font-family="Sans-Serif" font-size="13.00" fill="#2d3436">OpenAI</text>
<text xml:space="preserve" text-anchor="middle" x="680.8" y="-474.35" font-family="Sans-Serif" font-size="13.00" fill="#2d3436">chat + TTS</text>
</g>
<!-- 354127877bd249a7ba5037c15f38c37b&#45;&gt;fd5cc5e46a26465b8e1e81836ed689ce -->
<g id="edge7" class="edge">
<title>354127877bd249a7ba5037c15f38c37b&#45;&gt;fd5cc5e46a26465b8e1e81836ed689ce</title>
<path fill="none" stroke="firebrick" stroke-dasharray="5,2" d="M454.25,-735.31C501.27,-697.31 572.21,-639.97 621.94,-599.77"/>
<polygon fill="firebrick" stroke="firebrick" points="623.91,-602.68 629.48,-593.67 619.51,-597.23 623.91,-602.68"/>
<text xml:space="preserve" text-anchor="middle" x="542.3" y="-713.55" font-family="Sans-Serif" font-size="13.00" fill="#2d3436">~100ms (chat+TTS)</text>
</g>
<!-- ebb568119f4f4198ab1058006409991d -->
<g id="node10" class="node">
<title>ebb568119f4f4198ab1058006409991d</title>
<image xlink:href="C:\Users\bruno.moise\AppData\Local\Programs\Python\Python313\Lib\site-packages\resources/aws/compute\ec2.png" width="100.8px" height="100.8px" preserveAspectRatio="xMinYMin meet" x="630.4" y="-394.4"/>
<text xml:space="preserve" text-anchor="middle" x="680.8" y="-281.85" font-family="Sans-Serif" font-size="13.00" fill="#2d3436">Deepgram</text>
<text xml:space="preserve" text-anchor="middle" x="680.8" y="-265.35" font-family="Sans-Serif" font-size="13.00" fill="#2d3436">streaming STT</text>
</g>
<!-- 354127877bd249a7ba5037c15f38c37b&#45;&gt;ebb568119f4f4198ab1058006409991d -->
<g id="edge8" class="edge">
<title>354127877bd249a7ba5037c15f38c37b&#45;&gt;ebb568119f4f4198ab1058006409991d</title>
<path fill="none" stroke="firebrick" stroke-dasharray="5,2" d="M434.16,-692.26C446.85,-660.15 463.08,-623.68 481.55,-592.5 522.29,-523.75 580.37,-453.26 623.14,-405.01"/>
<polygon fill="firebrick" stroke="firebrick" points="625.62,-407.48 629.67,-397.69 620.4,-402.82 625.62,-407.48"/>
<text xml:space="preserve" text-anchor="middle" x="542.3" y="-596.65" font-family="Sans-Serif" font-size="13.00" fill="#2d3436">~95ms (audio)</text>
</g>
</g>
</svg>
